<svg xmlns="http://www.w3.org/2000/svg" viewBox="0 0 390 260">
	<path d="M10.8,245.8c1.1,0,1.7-0.3,2.4-1c0.8-0.8,1-1.6,1-2.7c0-1.1-0.3-1.8-1-2.6c-0.8-0.8-2.1-1.1-3.2-1.1H7v7.4
		L10.8,245.8z M1.7,233.2h8.6c2.5,0,5,0.9,6.8,2.7c1.8,1.8,2.5,3.5,2.5,6v0.8c0,2-0.6,3.4-1.7,5c-1.1,1.6-2,2-3.8,2.7l5.9,9.2h-6.4
		L7,249.2v10.3H1.7L1.7,233.2z"/>
	<polygon points="31,233.2 31,259.5 36.3,259.5 46.8,259.5 46.8,254.2 36.3,254.2 36.3,249 44.1,249 44.1,243.7 
		36.3,243.7 36.3,238.5 46.8,238.5 46.8,233.2 	"/>
	<polygon points="69.1,233.2 63.8,233.2 57.3,233.2 57.3,238.5 63.8,238.5 63.8,259.5 69.1,259.5 69.1,238.5 
		75.7,238.5 75.7,233.2 	"/>
	<path d="M95.2,250.8l-2.3-5.5l-2.3,5.5H95.2z M88.4,255.4c-0.6,1.3-1.2,2.7-1.8,4h-5.7l11.9-26.7l12,26.7h-5.7
		c-0.6-1.3-1.2-2.7-1.8-4L88.4,255.4L88.4,255.4z"/>
	<rect x="115.2" y="233.2" width="5.3" height="26.3"/>
	<polygon points="131.4,233.2 131.4,259.5 147.2,259.5 147.2,254.2 136.7,254.2 136.7,233.2 	"/>
	<polygon points="187.3,233.2 182,233.2 175.4,233.2 175.4,238.5 182,238.5 182,259.5 187.3,259.5 187.3,238.5 
		193.8,238.5 193.8,233.2 	"/>
	<polygon points="217.7,233.2 217.7,243.7 209.8,243.7 209.8,233.2 204.5,233.2 204.5,259.5 209.8,259.5 209.8,249 
		217.7,249 217.7,259.5 222.9,259.5 222.9,233.2 	"/>
	<rect x="233.9" y="233.2" width="5.3" height="26.3"/>
	<polygon points="250.2,259.5 255.4,259.5 255.4,244.9 271.2,260 271.2,233.2 266,233.2 266,247.7 250.2,232.7 	"/>
	<polygon points="293.3,233.2 287.5,243.2 287.5,233.2 282.2,233.2 282.2,259.5 287.5,259.5 287.5,249.8 294.2,259.5 
		300.6,259.5 291.6,246.6 299.4,233.2 	"/>
	<rect x="311" y="233.2" width="5.3" height="26.3"/>
	<polygon points="327.2,259.5 332.5,259.5 332.5,244.9 348.3,260 348.3,233.2 343,233.2 343,247.7 327.2,232.7 	"/>
	<path d="M371.9,233.1c1.8,0,3.5,0.3,5.2,1c1.6,0.7,3,1.6,4.3,2.8l-3.8,3.8c-1.6-1.6-3.5-2.3-5.6-2.3
		c-2.2,0-4.1,0.8-5.6,2.3c-1.5,1.6-2.3,3.4-2.3,5.6c0,2.2,0.8,4.1,2.3,5.6c1.6,1.6,3.4,2.3,5.6,2.3c1.7,0,3.3-0.5,4.6-1.5
		c1.4-1,2.3-2.3,2.9-3.8h-7.5v-5.3h7.5h3.1h2.4c0.2,0.8,0.3,1.7,0.3,2.6c0,3.7-1.3,6.8-3.9,9.4c-2.6,2.6-5.7,3.9-9.4,3.9
		s-6.8-1.3-9.4-3.9c-2.6-2.6-3.9-5.7-3.9-9.4c0-3.7,1.3-6.8,3.9-9.4C365.1,234.4,368.2,233.1,371.9,233.1L371.9,233.1z"/>
	<rect x="275.1" y="0.5" width="5.3" height="168"/>
	<rect x="287.3" y="0.5" width="5.3" height="168"/>
	<rect x="263" y="0.5" width="5.3" height="168"/>
	<path d="M311.5,0.7v167.5c1.8-0.1,3.6-0.3,5.3-0.5l0-166.5C315.1,1,313.3,0.8,311.5,0.7"/>
	<path d="M323.6,2.4v164.1c1.8-0.4,3.6-0.8,5.3-1.3l0-161.6C327.2,3.2,325.4,2.7,323.6,2.4"/>
	<path d="M304.7,0.5l0,168c-0.1,0-0.1,0-0.2,0h-5.1V0.5h5.1L304.7,0.5z"/>
	<path d="M347.8,11.4v146.1c1.8-1,3.6-2.1,5.3-3.2l0-139.6C351.4,13.5,349.7,12.4,347.8,11.4"/>
	<path d="M360,19.7v129.6c1.8-1.5,3.6-3.1,5.3-4.7l0-120.1C363.6,22.7,361.8,21.2,360,19.7"/>
	<path d="M335.7,5.8V163c1.8-0.7,3.6-1.4,5.3-2.1L341,8C339.3,7.2,337.5,6.5,335.7,5.8"/>
	<path d="M384.2,56.5v56.1C389.7,94.6,389.7,74.4,384.2,56.5"/>
	<path d="M372.1,32.2v104.6c1.9-2.6,3.7-5.3,5.3-8.2l0-88.3C375.8,37.5,374,34.8,372.1,32.2"/>
	<polygon points="147.7,0 147.5,0.6 147.7,0 	"/>
	<polygon points="144.9,7.1 144.9,7.1 147.5,0.6 	"/>
	<polygon points="61.5,0.5 120.5,152.1 123.4,144.8 67.2,0.5 	"/>
	<polygon points="48.1,0.5 97.5,127 113.9,169.1 116.6,162.1 53.8,0.5 	"/>
	<rect x="3" y="13" width="30.5" height="5.4"/>
	<rect x="3" y="25.6" width="30.5" height="5.4"/>
	<rect x="3" y="0.5" width="30.5" height="5.4"/>
	<rect x="3" y="50.8" width="30.5" height="5.4"/>
	<rect x="3" y="63.4" width="30.5" height="5.4"/>
	<rect x="3" y="38.2" width="30.5" height="5.4"/>
	<rect x="3" y="88.6" width="30.5" height="5.4"/>
	<rect x="3" y="101.2" width="30.5" height="5.4"/>
	<rect x="3" y="76" width="30.5" height="5.4"/>
	<rect x="3" y="126.4" width="30.5" height="5.4"/>
	<rect x="3" y="139" width="30.5" height="5.4"/>
	<rect x="3" y="113.8" width="30.5" height="5.4"/>
	<rect x="3" y="151.6" width="30.5" height="5.4"/>
	<rect x="3" y="164.1" width="30.5" height="5.4"/>
	<polygon points="75,0.5 127.3,134.9 130.1,127.5 113.8,85.5 113.7,85.5 80.5,0.5 	"/>
	<polygon points="147.7,0 147.5,0.6 144.9,7.1 194,133.3 196.4,127.1 196.9,126 	"/>
	<polygon points="138,24 187.2,150.6 190.1,143.2 140.9,16.9 	"/>
	<polygon points="131.2,41 147.5,83 147.6,82.8 164.6,126.5 180.6,167.5 183.4,160.4 134.1,33.8 	"/>
	<polygon points="213,0.5 211.3,4.8 227.7,47 230.6,39.7 215.3,0.5 	"/>
	<polygon points="223.1,0.5 234.5,29.7 237.3,22.4 228.8,0.5 	"/>
	<polygon points="236.2,0.5 241,13 243.9,5.6 241.9,0.5 	"/>
	<polygon points="184.6,74.6 200.7,116 203.6,108.7 187.4,67.2 	"/>
	<polygon points="191.3,57.1 207.5,98.8 210.4,91.4 194.1,49.7 	"/>
	<polygon points="198,39.7 214.2,81.5 217.1,74.2 200.8,32.3 	"/>
	<polygon points="204.6,22.2 221,64.2 223.8,56.9 207.5,14.8 	"/>
	<polygon points="117.7,75.5 134,117.6 136.9,110.3 120.5,68.2 	"/>
	<polygon points="124.4,58.2 140.8,100.3 143.6,93 127.3,50.9 	"/>
</svg>
